<svg id="alligator" xmlns="http://www.w3.org/2000/svg" viewBox="0 0 780 780"><defs><style>.cls-1{fill:#444402;}.cls-2{fill:#8d9919;}.cls-3{opacity:0.13;}.cls-4{fill:#70750a;}.cls-5{fill:#f79c84;}.cls-6{fill:#d36c57;}.cls-7{fill:#e094b7;}.cls-8{fill:#54540a;}.cls-9{fill:#e6e6e6;}.cls-10{opacity:0.27;}</style></defs><title>alligator</title><path class="cls-1" d="M485,328.5s-5.33333-9.83333-13.5-7.5c0,0-8.83333-6.52783-16.83333-1.43058,0,0-6-12.23609-16.33333-5.90275,0,0-10-10.53122-19.33333-3.76561,0,0-11.66667-4.09894-14,0,0,0-7-8.76561-18.33333,0,0,0-6.33333-4.90106-14.66667,2.43228,0,0-7-7.33333-18.66667,3,0,0-8.33333-4.13755-16,8.59789,0,0-5-6.93122-10.33333-2.59789,0,0-10.33333-6-19.66667.33333,0,0-18.33333,4-22.33333,14.33333,0,0-16.33333-1.33333-16.66667,6s0,3.10345,0,3.10345S263,338.2069,254,345.60345c0,0-9.33333-8.63582-18,.7137,0,0-3-4.33314-13.66667,2.34152,0,0-11.33333-6.34133-16.66667,0,0,0-8-4.008-14.33333,0,0,0-9.66667-2.34133-14,0,0,0-2.66667-6.34133-11.66667,0,0,0-2.75-10.09133-13.33333,0,0,0-2-10.992-10.83333-6.65867,0,0-2.91667-8-11.875-8,0,0,.45833-13.66667-3.75-14,0,0,7.45833-2.41667,7.125-9.875,0,0,10-.375,12.5-8.25,0,0,10.75-.29167,16.125-7.25,0,0,10.625.20833,14-3.875,0,0,13.2965,3.08027,18.5-7.125,0,0,12.04167,3.70833,20.125-3.125,0,0,11.75,1.91667,16.25-1.125,0,0,12.40184,3.481,20.625-3.875,0,0,7.81249,4.625,17.375-4,0,0,10.40813,5.5,15.95406-4.5L247,263s-110,8.66667-133.66667,40.33333c0,0-12.33333,22.54023,4.66667,42.27012,0,0,12,30.6802,100,21.37171l202-18.31649s46.33333,8.67466,56,.34133C476,349,487.64007,332.07405,485,328.5Z"/><path class="cls-2" d="M676.5,346.75c-0.08062-.30514,7.01354.12271,7.50673,0.23656,9.32615,2.153,8.27079,10.38332,3.83414,16.81493C682.51621,371.5204,673.68609,375,664.5,375q-19.47167.40438-38.92906,1.47943c-10.11977.569-20.66842,0.831-30.56217,3.16254-2.35694.55544-3.791,2.21413-5.60433,3.71715q-3.42985,2.84283-7.06786,5.42153a93.95022,93.95022,0,0,1-15.37862,8.90743c-6.40977,2.90376-12.98457,5.709-19.94732,6.96295a30.6738,30.6738,0,0,1-10.68776.43963c-3.14951-.58987-6.18458-2.34037-8.88953-4.00114-7.81077,7.59034-17.86992,15.29044-29.47979,13.84049L501,407l26.41281-49L536.5,349s24-6,37.5,1.5c0,0,33,14,50,13,0,0,45.98438,6,54.48438-9.25Z"/><path class="cls-2" d="M88.66778,347.92985S110.125,417,191.625,422c0,0,55.375,7.47578,81.375-.5l8-44.5H265l-8.5,5H247l-10.5-1.044-16-1.23223-14,4.08878-11.5-3.9503-15,5.21591-5-5.33309s-21.5,3.7745-26-2.7255l-14-.50977-7-6.50488s-7.17309.79671-11.5-8.00488H106l-6.33333-17.39655Z"/><path class="cls-3" d="M264.643,398.48909s-37.87008,24.21948-75.13154,23.3652c0,0,40.37725,8.62286,81.30789.25929L276,409Z"/><path class="cls-2" d="M326.5,418.72853S385.5,458.36,460,414.93l11.5-38.43-2.65865-9.52484L316.5,374.25Z"/><path class="cls-3" d="M453.48788,418.5361l-7.097,3.51533s8.38952-36.16342,23.9993-44.48242Z"/><path class="cls-4" d="M486,433s5.66667,51.66667,31.66667,51.33333c0,0,8.66667.66667,11.33333,3.66667l-2.66667,3.33333S537.66667,494,540.66667,498.66667L528,501.33333s4.33333,7.66667,3,13.33333l-17.66667-7.33333s0.66667,11-4,15.66667l-9-14S492.66667,523.33333,490,523c0,0-7-23.66667-2.66667-27.33333C487.33333,495.66667,446,476,449,439c0.209-1.204.4428-2.40408,0.679-3.603a271.05533,271.05533,0,0,1,7.72224-30.45018,126.69335,126.69335,0,0,1,6.80354-17.37955,56.48235,56.48235,0,0,1,4.07176-7.07808c0.71554-1.03859,2.34082-2.1739,2.15844-3.57472-0.0939-.72127-0.95767-1.68706-1.19522-2.46248-1.55168-5.06539-.22453-10.71617,1.02167-15.70282,0.785-3.141,2.11075-8.68186,5.73859-9.74917,5.66667-1.66667,51.82563,3,51.41281,9l-29.45925,56.93Z"/><path class="cls-5" d="M603,324s20,3.58333,33.2091,18c0,0,25.7909-4,44.2909,12.25,0,0-19.5,23.75-80,5.75l-18-20.5S596.829,322.72882,603,324Z"/><path class="cls-6" d="M616.40527,328.33557A66.90137,66.90137,0,0,0,603,324c-6.1709-1.27118-20.5,15.5-20.5,15.5l12.45752,14.18787A41.72243,41.72243,0,0,1,616.40527,328.33557Z"/><path class="cls-7" d="M600,360v-6s-14.75-5.5-9.75-23l-0.89541-4.641L564.43749,324l-28.21874,25Z"/><path class="cls-4" d="M658,273s-6.5-14.5-20.5-10.5c0,0-11.5,6-11.5,10.5,0,0-25.04643,8.5-31.02322,7,0,0-7.47678-1.645-9.47678.1775,0,0-8-9.1775-16-3.1775l-7,7s-11,.5-11.5,6l-15,17s-18.5-6.5-28.5,8.5c0,0-12.7562,0-12.8781,9.5,0,0-8.1219-3.5-9.6219,3.5L476,349l51.41281,9S549.5,334.5,562,333.5l8.5-6s19,6.5,39.5-15c0,0,18-2,26.5-14.5,0,0,13.5-9.5,14.5-16.5Z"/><path class="cls-8" d="M550,309.90106l-4.375,3.97394s11.50773,1.17629,19.22261-5.28686Z"/><path class="cls-8" d="M640,269.5s-8.5-2.5-7.5,6.5C632.5,276,633,279,640,269.5Z"/><path class="cls-9" d="M550,309.90106s19.5,6.5,19.5-13.20053C569.5,296.70053,553,285.80211,550,309.90106Z"/><path class="cls-2" d="M141.375,342.41667c16.087-16.12373,36.18719-30.84676,57.29056-39.42934a81.62754,81.62754,0,0,1,16.27866-4.93629,197.28239,197.28239,0,0,0,36.65414-10.38787c9.81065-3.78028,22.24023-8.454,29.40164-16.592,0,0-10.20833,2.7205-12.20833.2205,0,0-7.66667,7.45833-17.66667,4.20833,0,0-8.06615,4.35692-20.625,3.875a39.85984,39.85984,0,0,1-16.25,1.125s-13,5.25-20.125,3.125c0,0-10,9.125-18.5,7.125,0,0-8.125,4.25-13.875,3.625,0,0-11.25-.1326-16.25,7.5,0,0-8.375,8.41667-12.5,8.25,0,0-5.07174,9.00729-7.125,9.875,0,0,4.25,10.25,3.75,14C129.625,334,141.5,338.54167,141.375,342.41667Z"/><polygon class="cls-9" points="614.779 327.646 620.75 326.125 622.5 329 626 329 627.333 334.201 632.167 332.292 633.167 336.563 636.5 332.865 638 337.516 644.167 333.958 645.167 337.504 648.833 333.952 651.333 339.334 656 336.167 657.833 341.167 661 338.281 661 342 667.417 337.167 669.542 344.167 673.937 340.5 677.969 345.111 678.484 354.25 634.201 342 614.779 327.646"/><path class="cls-9" d="M600,354l3.25-3.66667,1.79167,6.73763,4.0625-4.9043L612.63542,358l4.51563-3.75,1.17448,5.75,4.33724-5.75,3.33529,5.08333,3.001-4.16667L632.41772,360l3.79114-2.929,2.95768,4.5957,4.50006-4.5957,3,4.5957,3.5-3.66667,2.5,3.66667L657,357.071l5.83334,2.26237L666,355.16667,670.33333,356l2.75-3.80131,2.25,2.05131L676.5,349.5l3.75,4.75S664,381.16667,600,360v-6Z"/><path class="cls-9" d="M588.89626,327.65448l1.31207,3.99326,5.3125,2.62666,1.61687-8.23746,4.32584,3.2107,1.1849-5.20715L608,323v-5l5.91667,1.83333L616.875,314.5,621,316.33333V315h7l1-3.82166,4.5-1.15228,0.83333-3.13022,4.33333-.94792L640,300h5l0.66667-5H650v-4h2l1.66667-7H657l1-2.91667,2.33333,1.20833L658,273.0625S587.29252,324.309,588.89626,327.65448Z"/><path class="cls-4" d="M284.45406,267s3.35843-7.625-6.39157-4.125c0,0-3.03124-6.0625-8.03124-2.8125,0,0-7.51562-3.03125-10.51562.96875,0,0,.74219,1.32437-5.25781-2.09562,0,0-10.00391-2.92781-11.00391,2.32219a3.58777,3.58777,0,0,1-4.752-1.50391s-1.001-8.252-9.001,1.248c0,0-4.25049-1.89613-4.75049-4.57355,0,0-8.25024-3.67791-13.50024,3.57209,0,0-5.00012-.50024-5.75012-3.50024,0,0-4.25006-4.75012-8.50006-3.00012,0,0-10,.74994-11.5,4.74994,0,0-3-7.75-10-3.75,0,0-9,5.75-10,9.25,0,0-6.25-9.88717-17.25-3.81859l-4.5,2.81858s-10-6.25-15.25,4l-2.625,4.75s-4.375-6.75-7.375,0l-4.125,7.75S105,276,104,284.5V296s-6,2.25-7,0c0,0-5.375-8.25-7.875,1,0,0-1.6875,7.75-1.6875,12.5,0,0-3.46875-3.75-3.46875,3.75,0,0,1.76563,11,3.51563,13.25,0,0-3.49219,1.5-2.24219,6.25,0,0,.25391,7.5,4.00391,9.25,0,0-3.998,9,3.502,8.75l7.251,0.00511S99.74951,368,116.49951,362c0,0-.49976,12.50586,11.50024,8.50293,0,0,2.25012,12.52051,21.00012,7.50879,0,0,7.75006,8.94709,26.00006,2.71769,0,0-1.75,11.87,20,.07031,0,0,11.5,9.14775,25.5-.326,0,0,32.25,9.52626,44.5-3.47374l9,3.43832,42.4961-6.06332,152.34526-7.39984L476,349s-9.5-3.75-13.5,1.25c0,0,.5-14.25-15-7,0,0-11.75-1.77794-13.5,1.861A25.81278,25.81278,0,0,0,413.25,342s-13.5-4.25-16.5,0c0,0-13-2-15.75,0,0,0-12.75-1.75-15.25,0,0,0-13.5-1.27794-18.5,3.111,0,0-12.46559-.861-15.2328,4.139,0,0-10.0172-4.25-15.5172,2.75,0,0-12.75,0-14.5,3.25,0,0-12.25-.25-16,3.25l-1.67094-4.5S272.75,352.75,268.75,357c0,0-12.5-1.25-15,2.25,0,0-11.75-2.5-14.25-.25,0,0-18-3.75-19,2.5,0,0-15.125-2.25-17.06251,3.5,0,0-12.93749-5-17.18749-1.25l-11.75,1s-9.75-10-18.25-4.5c0,0,1.5-6-14.5-1.5,0,0,1.75-6-10.75-4.75,0,0-7.75-16.75-13.5-15.75,0,0-1.5-10-6.75-15,0,0,3-3,1.25-10l12-15s4.25,5.75,15.25-5.5c0,0,9.25-.75,14-8,0,0,15.25-2.25,18.25-6.5,0,0,20.75-1.25,21.75-5,0,0,19.5,1,20.5-1.75,0,0,17,2.75,19.25-2,0,0,11.74219,5.06437,16.5-2.75a22.04206,22.04206,0,0,0,13.5.75s9.5,2.25,11,.75C274,268.25,280.90813,270.75,284.45406,267Z"/><path class="cls-4" d="M316.49609,374.20833s19.73363,32.25336,15.9521,47.81418c0,0,.88514,21.60249-15.94819,29.26916l-13.83333,9.02085s32.66667,4.67706,38,10.34373l-5.83333,2.33854S341,482.33333,341,484.33333V486l-7.16667,2,0.91667,4s-8.20833,3.33333-15.20833,3l0.39583,3.66667s-19.63541-1-27.63541-7c0,0-30.651-17-32.98437-21.66667,0,0,4.01172-31.64154,28.34505-43.82077,0,0-12.99609.82077-16.8434-4.06566,0,0-16.15319-23.9036,3.18015-41.67525Z"/><ellipse cx="559.8223" cy="300.38824" rx="4.35637" ry="4.84291" transform="matrix(0.98669, -0.1626, 0.1626, 0.98669, -41.39338, 95.0256)"/><path class="cls-8" d="M319.54167,495s-6.04167-6.875-8.41667-7.375c0,0,8.77848,3.69286,11.76424,7.28393Z"/><path class="cls-8" d="M333.83333,488s-5.70833-7.375-18.20833-8.875c0,0,12.393-1.36258,21.3215,8.00621Z"/><path class="cls-8" d="M334.83333,472.99479S326.875,469.25,320.5,470.375c0,0,9.22734-1.466,17.86367,1.2045Z"/><path class="cls-8" d="M287.66276,426s3.08724-6.05423,21.21224-3.92923c0,0-19.93225-6.07077-27.125,3.92923h5.91276Z"/><path class="cls-8" d="M302.66667,460.31252S296.25,464.875,284.875,462.625c0,0,9.75,4.146,26.25-.927Z"/><path class="cls-8" d="M470.39022,377.569S477.25,368.25,486.625,365.375c0,0-12.41954-2.30734-18.02227,5.59633C468.60273,370.97133,468.28044,375.638,470.39022,377.569Z"/><path class="cls-8" d="M487.33333,495.66667L489.125,496.25,490,523S482.79167,500.83333,487.33333,495.66667Z"/><path class="cls-8" d="M500.33333,509l9,14S504.5,507.375,501.875,506.875Z"/><path class="cls-8" d="M513,507v-2s14.5,4.33333,18,9.66667Z"/><path class="cls-8" d="M528,501.33333L526.125,499.75s12.58333-1.79167,14.54167-1.08333Z"/><polygon class="cls-8" points="529 488 522 490.125 526.333 491.333 529 488"/><path class="cls-8" d="M562.5,284s14.31249-4.75,19,2.875c0,0-2.81251-4.9375,4.93749-4.6875C586.43749,282.1875,574,272.8125,562.5,284Z"/><path class="cls-8" d="M526.875,358s4.625-15.5-10.75-20.375c0,0,26.375,1.18455,45.875-4.125Z"/><path class="cls-10" d="M527.43335,401.0895S521.75,399.75,522,388c0,0-4.25,13.4533,0,17.97665Z"/></svg>