<svg id="ant" xmlns="http://www.w3.org/2000/svg" viewBox="0 0 780 780"><defs><style>.cls-1{fill:#7f4113;}.cls-2{fill:#592604;}.cls-3{fill:#e6942a;}.cls-4{fill:#fff;}.cls-5{fill:#f7c766;}.cls-6{fill:#c97e2d;}</style></defs><title>ant</title><path class="cls-1" d="M219.89785,396.37022s-20.52528,11.30027-37.96156,13.965c0,0-33.76962,6.16475-29.76962,10.16475,0,0,13.33333,3.83333,25.16667,0,0,0,17.44358-2.38274,50.63846-19.608Z"/><path class="cls-2" d="M220.5,402s-18.63407,6.70955-20.4837,18c0,0,14.75975-12.83333,22.45506-6.16667Z"/><path class="cls-1" d="M570.66667,336.66667s8,14.33333,26,26.33333c0,0,17.33333,16,37,24.33333l29.33333,13s9-1.66667,12.33333,4c0,0,13-3.66667,19.33333,0,0,0,3.33333-9.66667-15.66667-12,0,0-23,1.33333-35-14.33333,0,0-10.33333-6-14-5,0,0-26.05408-3.82965-42.69371-34.41483C587.30629,338.58517,572.66667,333.33333,570.66667,336.66667Z"/><path class="cls-1" d="M107.49913,528.375s12.81293-6.375,17.43793,1.75a8.76624,8.76624,0,0,0,8.469-4.23318s2.35948-1.82693,3.85948-.03125,0.74224,0.40506.74224,0.40506,17.74612,2.11719,29.12112-7.88281c0,0,29.74806-20.12891,37.62306-20.25391l31.624-13.502-2.12548-46.126s5.31741,4.07747,3.87476-.25049C237.87524,437.50049,235.625,422,235.625,422l-7.63831-2.83333L228.236,472.25S225.25,482.625,215.5,485c0,0-60.5,23.93752-63.625,27.06252,0,0-13.875,5.96873-19,5.34373C132.875,517.40625,115.87326,516.875,107.49913,528.375Z"/><path class="cls-3" d="M300,323.33333s-4.66667-26.66667-38.33333-5.66667c0,0-40,38-42.66667,85,0,0-1.33333,18,14.33333,20,0,0,50.33333,1.66667,78.66667-29.33333,0,0,15-20-5.66667-33.66667,0,0,3.33333-5.66667,6-5.33333Z"/><path class="cls-1" d="M413.33333,305.33333s-2.66667-16,12.33333-19.33333a48.23677,48.23677,0,0,1,18-37.66667s24.33333-25,40.66667-22c0,0,36-10.33333,71,12.66667,0,0,33.66667,21,36.66667,37,0,0,19.33333,18.87786,20.66667,33.6056,0,0,9.66667,20.3944-10.33333,27.06107,0,0-23.33333,4.66667-31.66667,0,0,0-18,10.33333-45,11,0,0-40.33333,4.66667-78.66667,0,0,0-19,8.66667-30.66667,7C416.33333,354.66667,430.33333,327.33333,413.33333,305.33333Z"/><path class="cls-1" d="M301.32714,326.66913s4.6728-24.66882,25.67246-22.00251c0.34315,0.04357,2.62786-2.45139,2.97363-2.71734a28.56806,28.56806,0,0,1,9.14193-4.65436,32.85615,32.85615,0,0,1,15.14215-.73359c3.23851,0.56644,5.61533,2.66744,8.86769,1.772,2.09929-.578,3.71759-2.14308,5.34864-3.686,1.13991-1.07831,2.83179-1.72768,4.15136-2.57673,0.83471-.53708,1.08922-1.4893,2.02979-1.80637,13.86242-4.67306,28.14715,1.2851,36.79789,12.5624q0.9283,1.21015,1.88065,2.5067c19.33333,26.33333,3,49.33333,3,49.33333l-49,.21289-31.66667,14.78711s-16.67545,1.40134-23.33333-15.33333Z"/><path class="cls-1" d="M340,257s-3.16667,4.33333-3.33333,7.83333l-11.25385,39.68519s8.08574,1.92921,12.92052-7.68519c0,0,2.83333-11.66667,5.33333-12.5C343.66667,284.33333,343.66667,257.33333,340,257Z"/><path class="cls-1" d="M399.375,294s23.95833-37.64123,25.95833-61.64123L431,233.67938s0.93689,15.95985,8.46845,18.47674l6.19822-3.15295-8-20.33492S432,213.00079,425,219.00079c0,0-8.66667,11.025-10,16.025L387,289.5Z"/><path class="cls-1" d="M354.67172,296.63953l-5.33839-36.97286s-3.66667-7-9.33333-2.66667l4.33333,41.33333Z"/><path class="cls-3" d="M416.33333,354.66667s-4.54762-13.946-15.95593-11.76811a15.05727,15.05727,0,0,0-1.71073.43478c-12.66667,4-20.66667-4-20.66667-4s-10,5.75911-10.66667,15.54622c0,0-6.33333,1.78711,8.33333,6.78711,0,0,7.66667,6.33333,8.33333,11,0,0,10.43591,9.80343,29.15155,2.61217q0.74875-.2877,1.51512-0.61217c19.66667-8.33333,20.66667-4.72056,20.66667-4.72056S459,390.66667,473,387c0,0,42.33333-15.66667,49.33333-13.66667,0,0,14,6.33333,15,20.33333,0,0,18.66667,47.66667,60.33333,78.33333,0,0,20,13.33333,31.66667,17,0,0,3.33333,4.66667,8,4.66667C637.33333,493.66667,646,497,646,499c0,0,5.60617-12.21233-13.22089-14.66667,0,0-50.77911-24.66667-76.44577-74,0,0-4.66667-29.66667-16.33333-33L527.66667,368A32.706,32.706,0,0,0,521,367.66667c-2,.33333-58,7-85.33333-5,0,0-6-1.66667-8.33333-.33333C427.33333,362.33333,420.66658,354.64784,416.33333,354.66667Z"/><path class="cls-1" d="M228.236,366.144S216.33333,339,214.66667,322c0,0-4-13.33333-15.33333-9.33333,0,0-51,2.83617-61.66667-.74858L117.33333,306s-5.66667-3.33333-6.66667,0l-23.33333,9.66667S88.33333,326.33333,112,321c0,0,16-3,26-1,0,0,48.33333,5.33333,64-.33333,0,0,7.66667,4.21546,6,14.60773,0,0,7.16089,37.91569,15.74711,43.654Z"/><ellipse cx="273.20645" cy="394.5" rx="7.83333" ry="5.41667" transform="translate(-206.50674 406.63541) rotate(-56.74502)"/><ellipse class="cls-4" cx="273.95143" cy="390.8213" rx="2.48712" ry="1.71982" transform="translate(-203.09402 405.59696) rotate(-56.74502)"/><path class="cls-5" d="M443,318c16-27,41-50,72-47,29,3,56,39,82,22,2.55151-1.27576,5.10449-.11316,8.43457-0.65906A112.46708,112.46708,0,0,0,592,276c-3-16-36.66675-37-36.66675-37-35-23-71-12.66669-71-12.66669-16.33325-3-40.6665,22-40.6665,22a48.23618,48.23618,0,0,0-18,37.66669c-15,3.33331-12.3335,19.33331-12.3335,19.33331a39.65359,39.65359,0,0,1,7.84351,18.22095C429.46411,325.9776,439.0459,325.11755,443,318Z"/><path class="cls-3" d="M614.97024,321.35954S597,324.33333,583.5,318c0,0-15.33333-3.5-15.66667-7.66667,0,0-13.7981,15.91375-33.5-4-3.875-3.91667-19,39-49.16667,11.66667,0,0-7.33333-44.16667-16.33333,4.66667,0,0-3,26.16667-16.66667,3.66667,0,0-5.66667,21.66667-23.33333,15.83333l-6.05419-2-2.82525-22.88042s6.87943-3.11958,8.5461-.11958c0,0,16.16667-2,17.16667-9.16667S438.5,285.66667,434.5,285.66667c0,0,7.5-19.66667,22-11,0,0,8.16665,1.78645,9.985-.335a1.513,1.513,0,0,0,.34831-1.165c-0.33333-3.83333-5.16667-10.5-5.16667-10.5s53.48531-7,52.40932-14.16667c0,0,32.09068-14.08648,46.924,5.04009,0,0,25.5.47,26.5,27.54828,0,0,17.10124.75257,17.93457,11.25257C605.43457,292.34094,618.80357,309.85954,614.97024,321.35954Z"/><path class="cls-3" d="M343,331c3,1,4,4,7,5,12,1,30,1,30-16,11,8,23,18,37,14a8.29124,8.29124,0,0,0,5.74121-3.39917c-0.313-7.48657-2.73437-16.1778-9.408-25.26752q-0.95214-1.297-1.88059-2.50669c-5.86833-7.64966-15.50256-13.56718-25.299-14.416a21.68007,21.68007,0,0,0-14.11216,3.38C367.91764,294.58068,365.18765,297.10556,360,298c-21.66675-7-33,6.66663-33,6.66663-21-2.66663-25.67285,22.0025-25.67285,22.0025l3.41992,8.5957c4.52,3.47089,9.88306,5.75189,15.25293,8.73517C328,348,343,343,343,331Z"/><path class="cls-5" d="M261.625,320.375s25.5-20.125,28.125,1c0,0-21.625,9.13411-25,21.50455,0,0,16.625-17.62955,30.625-13.12955,0,0-14.375,16-8.5,19.5s10.375,9.5-.125,15.375c0,0-17.5-2.125-19.625,6.75,0,0-10.5,17.625-21.25,3.375l-2,7.75s-8.25,1.125-10.5,4.375C233.375,386.875,230.25,349.5,261.625,320.375Z"/><path class="cls-6" d="M266.75,402.875s13.375,5.5,16.75-9.375c0,0,.625-3.75-1-5.625,0,0,5.5-.5,3.375,11.125,0,0-2.125,11-18.375,9.25C267.5,408.25,262.5,406,266.75,402.875Z"/><path class="cls-3" d="M358.25119,362.32206s-2.69759-19.01606-13.17822-8.15632c0,0-9.697,14.15865-5.50589,17.95792,0,0-2.92464,7.15184,9.62917,12.20965,0,0,12.65673,7.3889,8.98808,14.2435,0,0-9.45487,11.4769-25.452,11.92771-3.97254.11195-8.15339,1.27281-12.09327,1.80165-3.41993.45905-6.84647,0.87927-10.28207,1.2033-2.85207.269-6.84174,1.15475-9.51532-.21249-0.83969-.42944-1.58642-1.03628-2.45979-1.39227a9.22136,9.22136,0,0,0-3.99815-.38976q-2.36849.1297-4.73163,0.34024a18.61307,18.61307,0,0,0-3.73833.60877,10.22508,10.22508,0,0,0-6.438,6.11173c-0.81784,2.16837-.21241,4.35295-0.87839,6.56846-3.89,12.94112-8.218,25.75444-12.12772,38.6923-2.21692,7.33607-4.39731,14.68643-6.39286,22.08629-1.19924,4.447-2.72467,9.11128-3.07351,13.73157,0,0-7.68053,6.71761-8.62039,14.77332,0,0-6.169,10.31456-15.31153,14.434,0,0-28.91272,16.10223-26.20308,37.32832,0,0,10.88521-16.21933,18.89194-16.27826l26.24557-29.65452s8.65625-.42452,9.02822-6.45c0,0,.23139-15.69684,5.86217-2.95736l2.29559,0.55489s9.3137-42.841,13.17827-45.70037l-1.33888-27.30052,6.70924-.9965s6.40314-1.28377,5.97785-9.95572c0,0,15.9995-5.4412,29.952-1.46891,0,0,25.10617,6.09516,30.2673,2.50471l7.359-.02717s22.20249-49.814,8.569-56.15381Z"/><path class="cls-1" d="M306.33333,359.66667L303.66667,333l11.66667,18.66667S307.33333,355,306.33333,359.66667Z"/><path class="cls-5" d="M314,327c8-3,10-15,16-16,12-4,25,7,40,4,7-2,3-11,7-13,9.64893-5.26306,20.06689-4.371,29.90479-4.07239-5.71387-5.17084-13.17993-8.861-20.751-9.517a21.6803,21.6803,0,0,0-14.1123,3.38c-4.12378,2.7901-6.854,5.31494-12.0415,6.20941-21.66675-7-33,6.66663-33,6.66663-18.22168-2.31384-24.14722,15.94434-25.39722,20.81836A17.17222,17.17222,0,0,0,314,327Z"/><path class="cls-2" d="M241.16667,422.2037s3.08021-6.037-2.79323-7.537c0,0-16.01769,11.849-31.68436,10.5C206.68908,425.16667,226.16667,433.90741,241.16667,422.2037Z"/></svg>