<svg id="bird" xmlns="http://www.w3.org/2000/svg" viewBox="0 0 780 780"><defs><style>.cls-1{fill:#9b6e46;}.cls-2{fill:#d89030;}.cls-3{fill:#e96825;}.cls-4{fill:#a37c53;}.cls-5{fill:#f8af30;}.cls-6{fill:#ac405a;}.cls-7{fill:#e74d32;}.cls-8{fill:#499561;}.cls-9{fill:#e06987;}.cls-10{fill:#fff;}</style></defs><title>bird</title><path class="cls-1" d="M347,448s-4,29.5-14.5,36.5c0,0-4.5,41.5-25,45,0,0-35.5-6-50.5,12l8.5-3.5s0,7,7.5,3.5c0,0,26.5-6.54,42.5.98,0,0,15.5,2.52,22.5-3.48,0,0,16.5-.4896,21.5,4.0052,0,0,22,2.9948,23.75-2.0052,0,0-5.25-12-21.75-9.5L337,532s-8-2-4-14l11.5-30s12.5-2.5,9-7.5c0,0-.5-21,7.5-30C361,450.5,357,439,347,448Z"/><path class="cls-2" d="M360.25,450.75s-5.55065-4.29909-13.55065-.79909L346,422l36.875,4.5Z"/><path class="cls-3" d="M434.5,306.5s59,30,70.5,53.5c0,0,156,22.5,172.5,49l-5,9s36.5,42,13,43c0,0-37.5-2.5-142-50L499,390l-18-11.5Z"/><path class="cls-4" d="M398,447l11.5,53.5s-15,36.5-26,47.5c0,0-55.5,6-61.5,16.5l10-2.5s3.5,2,12.5-1c0,0,31-6,34.5-4.5,0,0-6,20.5-.5,28.5l1.5-5.5s2.5-1,5-6.5c0,0,1.5-15.5,13.5-12.5,0,0,26.5,12.5,36,10.5,0,0,10,4.5,10,7l-2.5-8.5s-44.5-14.5-45.5-23c0,0,18-31.5,24.5-36.5,0,0,11-11,4-17.5,0,0-10.5-33-7.5-45.5C417.5,447,409.5,438.5,398,447Z"/><path class="cls-5" d="M461,411.25s-27,14.375-42.5,9.875c0,0,9,19.875-1,26.875H398s-12,2.25-14.75-21.25c0,0-49.5.875-63.125-2.125,0,0-77.125-25.5625-101.625-60.0625,0,0-24.5-34.03125-30-65.53125,0,0-16.5006-52.02707-29-59.01562C159.5,240.01563,383,303,461,411.25Z"/><path class="cls-6" d="M481,378.5s71,44,75,60.5c0,0-29,1-82.5-24.5,0,0-37.5-13.5-43-12,0,0-70.72929-14.579-101.74859-48.4625,0,0,91.38334-55.40267,105.74859-47.5375C434.5,306.5,469.5,335.25,481,378.5Z"/><path class="cls-7" d="M293.27259,324.38043S338.25,377.5,364.875,354c0,0,19.625-2.33237,18.375-13.66618,0,0,20.75-4.83382,17.75-11.83382,0,0,22-7,19-16,0,0,16.5,1.5,14.5-6,0,0-21.87208-22.0612-44.5-29.5C390,277,296.04518,269.76087,293.27259,324.38043Z"/><path class="cls-8" d="M145.5,212S160,153.5,246,193.5c0,0,49.5,26,62.5,45,0,0,67,39,81.5,38.5,0,0-2,12.5-22,2.5,0,0-.5,11.5-15.5,10.5,0,0-14.5,12-28,10.5,0,0-1,11-14.5,6,0,0,13,13.5-10,9,0,0-4.5,15-17,8,0,0-11.5,7.5-22-3,0,0-10.5,8.5-23.5-6.5,0,0-38-61.5-53.5-64.5C184,249.5,142,249,145.5,212Z"/><path d="M193.5,215.65278c0,2.93785-4.02944,5.31944-9,5.31944s-9-2.3816-9-5.31944S179.52944,206,184.5,206,193.5,212.71493,193.5,215.65278Z"/><path class="cls-9" d="M175.5,227.5S166,213,145.5,212c0,0-43.5,2.5-60,15.5C85.5,227.5,142.5,240.5,175.5,227.5Z"/><ellipse class="cls-10" cx="188.25" cy="214.16667" rx="2.75" ry="4.16667"/></svg>